<svg xmlns="http://www.w3.org/2000/svg" viewBox="0 0 128 128">
  <defs>
    <linearGradient id="mark" x1="24" x2="104" y1="32" y2="96" gradientUnits="userSpaceOnUse">
      <stop stop-color="#f0717a"/>
      <stop offset="1" stop-color="#8c74ba"/>
    </linearGradient>
  </defs>
  <rect width="128" height="128" rx="28" fill="#fff7f8"/>
  <path d="M38 69c0-14 11-25 25-25h25v16H63c-5 0-9 4-9 9s4 9 9 9h25v16H63c-14 0-25-11-25-25Z" fill="url(#mark)"/>
  <path d="M90 59c0 14-11 25-25 25H40V68h25c5 0 9-4 9-9s-4-9-9-9H40V34h25c14 0 25 11 25 25Z" fill="#8c74ba" opacity=".72"/>
</svg>
